# xmcd
#
# Track frame offsets: 
#        150
#        19508
#        41666
#        68712
#        94705
#        117628
#        142258
#        162665
#        189110
#        216556
#        239242
#        269167
#
# Disc length: 3920 seconds
#
# Revision: 2
# Processed by: cddbd v1.5.2PL0 Copyright (c) Steve Scherf et al.
# Submitted via: ExactAudioCopy v1.0b3
#
DISCID=c10f4e0c
DTITLE=Mong Thi - Ao Cuoi Mau Hoa Ca
DYEAR=2000
DGENRE=Tinh Khuc Bat Tu
TTITLE0=Net buon thoi chien
TTITLE1=Ao cuoi mau hoa ca
TTITLE2=Tam diep khuc
TTITLE3=Neu em la giai nhan
TTITLE4=Chuyen do vi tuyen
TTITLE5=Vung troi ngay do
TTITLE6=Sao khong thay anh ve
TTITLE7=Hai ky niem mot chuyen di
TTITLE8=Cho nguoi vao cuoc chien
TTITLE9=De tra loi mot cau hoi
TTITLE10=hoa tau - Ai ve song Tuong
TTITLE11=hoa tau - Trach nguoi di
EXTD=
EXTT0=
EXTT1=
EXTT2=
EXTT3=
EXTT4=
EXTT5=
EXTT6=
EXTT7=
EXTT8=
EXTT9=
EXTT10=
EXTT11=
PLAYORDER=
